<?xml version="1.0" standalone="no"?>
<!DOCTYPE svg PUBLIC "-//W3C//DTD SVG 20010904//EN"
 "http://www.w3.org/TR/2001/REC-SVG-20010904/DTD/svg10.dtd">
<svg version="1.0" xmlns="http://www.w3.org/2000/svg"
 width="640.000000pt" height="1280.000000pt" viewBox="0 0 640.000000 1280.000000"
 preserveAspectRatio="xMidYMid meet">
<metadata>
Created by potrace 1.15, written by Peter Selinger 2001-2017
</metadata>
<g transform="translate(0.000000,1280.000000) scale(0.100000,-0.100000)"
fill="#000000" stroke="none">
<path d="M2526 12668 c-4 -73 -15 -392 -26 -708 -11 -316 -25 -699 -30 -850
-23 -648 -31 -876 -50 -1420 -11 -316 -25 -699 -30 -850 -5 -151 -14 -412 -20
-580 -5 -168 -12 -349 -16 -402 -3 -54 -2 -98 2 -98 3 0 72 22 153 50 233 79
415 120 536 120 127 0 345 -48 594 -130 68 -22 126 -38 129 -35 5 5 -6 414
-28 1005 -6 140 -19 514 -30 830 -40 1131 -60 1709 -70 1990 -6 157 -17 469
-25 695 -8 225 -15 433 -15 462 l0 53 -534 0 -534 0 -6 -132z m609 -893 c53
-52 15 -145 -59 -145 -79 0 -119 88 -66 145 32 34 91 35 125 0z m0 -711 c54
-58 16 -144 -63 -144 -50 0 -86 36 -86 85 0 78 96 116 149 59z m-14 -697 c70
-54 38 -157 -49 -157 -79 0 -118 95 -58 146 30 26 81 31 107 11z"/>
<path d="M2840 7805 c-304 -50 -561 -183 -781 -404 -212 -213 -333 -439 -396
-741 -26 -127 -24 -411 5 -543 60 -273 178 -498 366 -695 198 -207 436 -343
718 -409 102 -25 132 -27 308 -28 154 0 213 4 279 19 378 82 698 295 903 600
140 209 213 415 239 676 14 143 2 303 -36 458 -126 519 -536 923 -1065 1049
-133 31 -405 41 -540 18z m130 -250 l0 -85 90 0 90 0 0 86 0 86 63 -7 c391
-43 755 -291 946 -647 74 -136 140 -351 141 -455 l0 -43 -85 0 -85 0 0 -90 0
-89 88 -3 88 -3 -13 -90 c-78 -547 -528 -982 -1085 -1050 l-58 -7 0 86 0 86
-90 0 -90 0 0 -85 c0 -100 10 -95 -137 -66 -421 82 -767 365 -924 756 -36 90
-73 234 -83 317 l-6 57 87 3 88 3 0 85 0 85 -88 3 -87 3 6 57 c10 83 47 227
84 318 144 361 467 644 845 738 101 25 137 32 188 35 l27 1 0 -85z"/>
<path d="M3373 7078 c-183 -277 -323 -499 -323 -513 0 -3 9 -5 20 -5 31 0 85
-25 108 -51 12 -12 24 -20 27 -18 2 3 47 110 100 239 115 279 230 550 257 603
48 96 -4 26 -189 -255z"/>
<path d="M3019 6475 c-57 -31 -56 -121 2 -150 42 -22 67 -18 100 14 41 41 40
90 -2 125 -34 29 -61 32 -100 11z"/>
<path d="M2966 6181 c3 -47 9 -194 13 -325 l6 -239 73 309 c39 170 72 314 72
320 0 8 -12 9 -43 2 -32 -7 -55 -5 -85 5 l-42 15 6 -87z"/>
<path d="M4585 6400 l0 -230 28 0 c47 0 86 30 115 90 23 47 27 67 27 145 0 74
-4 99 -24 137 -29 61 -63 88 -110 88 l-36 0 0 -230z"/>
<path d="M2355 5018 c23 -105 65 -868 100 -1833 21 -582 74 -2343 75 -2477 0
-17 32 -18 534 -18 l533 0 7 233 c54 1816 106 3098 162 4010 4 59 5 107 2 107
-3 0 -32 -12 -64 -26 -178 -80 -388 -130 -583 -141 -234 -12 -518 44 -709 141
-62 32 -64 32 -57 4z"/>
<path d="M2540 310 l0 -310 530 0 530 0 0 310 0 310 -530 0 -530 0 0 -310z
m470 45 l0 -175 55 0 55 0 0 175 0 175 195 0 195 0 0 -220 0 -220 -445 0 -445
0 0 220 0 220 195 0 195 0 0 -175z"/>
</g>
</svg>
